<svg xmlns="http://www.w3.org/2000/svg" style="display: none;"><symbol id="solar-system" viewBox="0 0 512 512"><title>solar-system</title><g><circle cx="256" cy="256" fill="#172a7d" r="245"/></g><g><path d="m255.744 475.828c-4.142 0-7.5-3.358-7.5-7.5s3.358-7.5 7.5-7.5c112.976 0 204.889-91.913 204.889-204.889 0-92.611-62.499-174.012-151.985-197.951-4.001-1.07-6.377-5.182-5.307-9.184 1.07-4.001 5.182-6.378 9.184-5.307 96.036 25.691 163.108 113.05 163.108 212.441 0 121.248-98.642 219.89-219.889 219.89z" fill="#4f66d0"/></g><g fill="#4f66d0"><path d="m43.563 276.857c-.169 0-.738-.049-.945-.677-1.882-5.708-3.904-9.902-6.644-13.184.793 24.548 5.711 48.509 14.283 70.993 3.581-3.515 8.446-5.713 13.818-5.841-7.789-20.592-12.278-42.508-13.078-64.954-2.66 3.253-4.643 7.389-6.489 12.986-.207.628-.776.677-.945.677z"/><path d="m208.146 48.804c-1.071-4.001-5.184-6.378-9.184-5.307-91.326 24.432-156.455 104.634-162.623 197.917 2.553-3.213 4.483-7.272 6.279-12.72.207-.628.776-.677.945-.677s.738.049.945.677c1.923 5.833 3.988 10.09 6.821 13.403 5.87-86.788 66.512-161.371 151.51-184.11 4.002-1.07 6.378-5.182 5.307-9.183z"/><path d="m138.309 423.747c-23.788-16.699-43.404-37.985-57.993-62.18-3.228 3.904-7.882 6.574-13.151 7.248 15.683 26.166 36.842 49.179 62.525 67.209 1.311.92 2.814 1.362 4.303 1.362 2.361 0 4.685-1.112 6.145-3.191 2.381-3.391 1.561-8.069-1.829-10.448z"/></g><g fill="#6c7fd8"><path d="m166.826 125.051c37.023-25.112 84.381-34.52 130.803-21.783 3.996 1.096 8.121-1.254 9.217-5.249s-1.254-8.121-5.249-9.217c-51.436-14.111-103.922-3.39-144.664 24.854 4.593 2.384 8.159 6.457 9.893 11.395z"/><path d="m412.298 232.649c2.801-3.47 4.882-7.904 6.86-13.967.211-.648.784-.699.954-.699s.743.05.955.699c1.842 5.648 3.774 9.883 6.292 13.242-2.548-18.092-7.966-35.82-16.195-52.509-1.832-3.715-6.329-5.242-10.043-3.411-3.715 1.832-5.242 6.329-3.411 10.043 7.31 14.826 12.184 30.55 14.588 46.602z"/><path d="m161.811 383.433c-17.581-12.969-32.42-29.611-43.572-49.196-20.95-36.791-26.336-79.473-15.167-120.185 6.763-24.65 19.035-46.338 35.115-64.113-4.597-2.383-8.167-6.458-9.903-11.398-18.212 19.707-32.102 43.927-39.678 71.542-12.229 44.576-6.335 91.303 16.597 131.576 12.381 21.743 28.921 40.167 48.53 54.449 1.28-5.049 4.165-9.467 8.078-12.675z"/><path d="m350.617 382.596c-27.027 20.199-60.274 31.675-94.918 31.673-13.824-.001-27.88-1.829-41.84-5.659-4.411-1.21-8.737-2.61-12.982-4.172-.533 5.257-2.77 10.018-6.147 13.721 4.949 1.854 10.003 3.502 15.161 4.917 15.289 4.194 30.666 6.196 45.805 6.195 39.121-.001 76.618-13.371 106.692-36.802-2.856-4.392-6.475-7.388-11.771-9.873z"/><path d="m421.066 269.582c-.211.648-.784.698-.955.698-.17 0-.743-.05-.954-.698-1.548-4.746-3.161-8.49-5.129-11.563-.169 13.351-2.025 26.724-5.614 39.804-6.79 24.75-19.133 46.514-35.307 64.33 2.549 4.942 5.672 8.336 10.227 11.045 18.149-19.682 31.988-43.856 39.546-71.405 4.276-15.587 6.308-31.553 6.153-47.454-3.377 3.641-5.738 8.409-7.967 15.243z"/></g><g fill="#8795de"><path d="m353.799 175.736c-2.053 4.776-5.877 8.613-10.639 10.691 15.214 19.093 24.32 43.257 24.32 69.511 0 61.611-50.125 111.736-111.736 111.736-4.142 0-7.5 3.358-7.5 7.5s3.358 7.5 7.5 7.5c69.883 0 126.736-56.854 126.736-126.736 0-30.404-10.766-58.34-28.681-80.202z"/><path d="m315.515 161.574c1.573-5.001 5.024-9.171 9.519-11.699-19.927-13.063-43.735-20.673-69.29-20.673-69.882 0-126.736 56.854-126.736 126.736 0 4.142 3.358 7.5 7.5 7.5s7.5-3.358 7.5-7.5c0-61.612 50.125-111.736 111.736-111.736 21.969 0 42.475 6.377 59.771 17.372z"/></g><g><circle cx="255.744" cy="255.938" fill="#fea613" r="70.298"/></g><path d="m232.962 298.742c-13.352 3.02-26.675-5.267-29.837-18.619-2.929-12.367 3.886-24.758 15.466-29.133 2.153-30.933 24.311-56.342 53.631-63.388-5.288-1.271-10.802-1.962-16.479-1.962-38.824 0-70.298 31.474-70.298 70.298s31.473 70.298 70.298 70.298c5.678 0 11.191-.691 16.479-1.962-15.861-3.811-29.62-13.005-39.26-25.532z" fill="#fe9901"/><g><circle cx="335.016" cy="167.692" fill="#97d729" r="21.438"/></g><g><path d="m330 167.692c0-8.93 5.463-16.579 13.227-19.802-2.53-1.05-5.301-1.636-8.211-1.636-11.84 0-21.438 9.598-21.438 21.438s9.598 21.438 21.438 21.438c2.91 0 5.681-.586 8.211-1.636-7.764-3.223-13.227-10.872-13.227-19.802z" fill="#8bc727"/></g><g><circle cx="64.562" cy="348.562" fill="#97d729" r="21.438"/></g><g><path d="m60 348.562c0-8.843 5.357-16.432 13-19.709-2.59-1.111-5.441-1.73-8.438-1.73-11.84 0-21.438 9.598-21.438 21.438s9.598 21.439 21.438 21.439c2.997 0 5.848-.619 8.438-1.73-7.643-3.277-13-10.865-13-19.708z" fill="#8bc727"/></g><g><circle cx="255.744" cy="34.9" fill="#925cb4" r="34.9"/></g><g><path d="m248 34.9c0-14.458 8.792-26.863 21.322-32.16-4.174-1.764-8.762-2.74-13.578-2.74-19.275 0-34.9 15.625-34.9 34.9s15.625 34.9 34.9 34.9c4.816 0 9.404-.976 13.578-2.74-12.53-5.297-21.322-17.702-21.322-32.16z" fill="#814ba2"/></g><g><circle cx="177" cy="402" fill="#fed402" r="25"/></g><g><path d="m172 402c0-10.251 6.172-19.055 15-22.914-3.063-1.339-6.443-2.086-10-2.086-13.807 0-25 11.193-25 25s11.193 25 25 25c3.557 0 6.937-.748 10-2.086-8.828-3.859-15-12.663-15-22.914z" fill="#fac600"/></g><g><circle cx="276.863" cy="239.137" fill="#fed402" r="26.863"/></g><g><circle cx="227.452" cy="274.362" fill="#fb8801" r="25"/></g><g><circle cx="147.555" cy="131.795" fill="#fd4755" r="21.438"/></g><g><path d="m142.123 131.795c0-9.008 5.563-16.706 13.435-19.879-2.475-.997-5.172-1.56-8.003-1.56-11.84 0-21.438 9.598-21.438 21.438s9.598 21.438 21.438 21.438c2.832 0 5.529-.562 8.003-1.56-7.872-3.171-13.435-10.868-13.435-19.877z" fill="#fb2b3a"/></g><g><path d="m449.847 74.992c-14.14 4.612-19.243 9.715-23.855 23.855-.604 1.851-3.206 1.851-3.81 0-4.612-14.14-9.715-19.243-23.855-23.855-1.851-.604-1.851-3.206 0-3.81 14.14-4.612 19.243-9.715 23.855-23.855.604-1.851 3.206-1.851 3.81 0 4.612 14.14 9.715 19.243 23.855 23.855 1.851.604 1.851 3.206 0 3.81z" fill="#fea613"/></g><g><path d="m411.47 64.868c-3.308 2.542-7.498 4.473-13.143 6.314-1.851.604-1.851 3.206 0 3.81 14.14 4.612 19.243 9.715 23.855 23.855.604 1.851 3.206 1.851 3.81 0 1.822-5.587 3.731-9.749 6.234-13.042-4.17-11.775-9.084-16.755-20.756-20.937z" fill="#fe9901"/></g><g><path d="m191.673 318.992c-14.14 4.612-19.243 9.715-23.855 23.855-.604 1.851-3.206 1.851-3.81 0-4.612-14.14-9.715-19.243-23.855-23.855-1.851-.604-1.851-3.206 0-3.81 14.14-4.612 19.243-9.715 23.855-23.855.604-1.851 3.206-1.851 3.81 0 4.612 14.14 9.715 19.243 23.855 23.855 1.851.604 1.851 3.206 0 3.81z" fill="#fea613"/></g><g><path d="m153.349 308.827c-3.316 2.562-7.52 4.504-13.196 6.355-1.851.604-1.851 3.206 0 3.81 14.14 4.612 19.243 9.715 23.855 23.855.604 1.851 3.206 1.851 3.81 0 1.851-5.676 3.793-9.88 6.355-13.196-4.172-11.707-9.117-16.652-20.824-20.824z" fill="#fe9901"/></g><g><path d="m445.872 246.036c-14.14 4.612-19.243 9.715-23.855 23.855-.604 1.851-3.206 1.851-3.81 0-4.612-14.14-9.715-19.243-23.855-23.855-1.851-.604-1.851-3.206 0-3.81 14.14-4.612 19.243-9.715 23.855-23.855.604-1.851 3.206-1.851 3.81 0 4.612 14.14 9.715 19.243 23.855 23.855 1.851.604 1.851 3.207 0 3.81z" fill="#fea613"/></g><g><path d="m445.872 246.036c-14.14 4.612-19.243 9.715-23.855 23.855-.604 1.851-3.206 1.851-3.81 0-4.612-14.14-9.715-19.243-23.855-23.855-1.851-.604-1.851-3.206 0-3.81 14.14-4.612 19.243-9.715 23.855-23.855.604-1.851 3.206-1.851 3.81 0 4.612 14.14 9.715 19.243 23.855 23.855 1.851.604 1.851 3.207 0 3.81z" fill="#fea613"/></g><g><path d="m407.527 235.888c-3.313 2.554-7.511 4.492-13.175 6.339-1.851.604-1.851 3.206 0 3.81 14.14 4.612 19.243 9.715 23.855 23.855.604 1.851 3.206 1.851 3.81 0 1.821-5.582 3.728-9.742 6.227-13.033-4.167-11.795-9.067-16.788-20.717-20.971z" fill="#fe9901"/></g><g><path d="m67.619 254.332c-13.048 4.302-17.858 9.113-22.161 22.161-.6 1.819-3.19 1.819-3.79 0-4.302-13.048-9.113-17.858-22.161-22.161-1.819-.6-1.819-3.19 0-3.79 13.048-4.302 17.858-9.113 22.161-22.161.6-1.819 3.19-1.819 3.79 0 4.302 13.048 9.113 17.858 22.161 22.161 1.819.599 1.819 3.19 0 3.79z" fill="#fea613"/></g><g><path d="m32.306 244.148c-3.169 2.623-7.229 4.558-12.799 6.394-1.819.6-1.819 3.19 0 3.79 13.048 4.302 17.858 9.113 22.161 22.161.6 1.819 3.19 1.819 3.79 0 1.836-5.569 3.771-9.63 6.394-12.799-3.923-10.957-8.589-15.623-19.546-19.546z" fill="#fe9901"/></g><g><path d="m230.085 456.052c-8.054 2.885-11.475 6.306-14.36 14.36-.639 1.784-3.138 1.784-3.777 0-2.885-8.054-6.306-11.475-14.36-14.36-1.784-.639-1.784-3.138 0-3.777 8.054-2.885 11.475-6.306 14.36-14.36.639-1.784 3.138-1.784 3.777 0 2.885 8.054 6.306 11.475 14.36 14.36 1.785.639 1.785 3.138 0 3.777z" fill="#fff"/></g><g><path d="m219.611 462.749c-2.885-8.054-6.306-11.475-14.36-14.36-.021-.008-.035-.023-.056-.031-1.986 1.554-4.433 2.78-7.607 3.917-1.784.639-1.784 3.138 0 3.777 8.054 2.885 11.475 6.306 14.36 14.36.639 1.784 3.138 1.784 3.777 0 1.137-3.174 2.363-5.621 3.917-7.607-.008-.021-.023-.035-.031-.056z" fill="#f3f0f3"/></g><g><path d="m386.085 132.725c-8.054 2.885-11.475 6.306-14.36 14.36-.639 1.784-3.138 1.784-3.777 0-2.885-8.054-6.306-11.475-14.36-14.36-1.784-.639-1.784-3.138 0-3.777 8.054-2.885 11.475-6.306 14.36-14.36.639-1.784 3.138-1.784 3.777 0 2.885 8.054 6.306 11.475 14.36 14.36 1.785.639 1.785 3.138 0 3.777z" fill="#fff"/></g><g><g><path d="m360.838 125.802c-.15-.054-.27-.137-.395-.215-1.847 1.296-4.069 2.364-6.856 3.362-1.784.639-1.784 3.138 0 3.777 8.054 2.885 11.475 6.306 14.36 14.36.639 1.784 3.138 1.784 3.777 0 1.021-2.85 2.114-5.112 3.451-6.983-2.879-8.01-6.303-11.424-14.337-14.301z" fill="#f3f0f3"/></g></g><g><path d="m196.476 488.475c-13.048 4.302-17.858 9.113-22.161 22.161-.6 1.819-3.19 1.819-3.79 0-4.302-13.048-9.113-17.858-22.161-22.161-1.819-.6-1.819-3.19 0-3.79 13.048-4.302 17.859-9.113 22.161-22.161.6-1.819 3.19-1.819 3.79 0 4.302 13.048 9.113 17.858 22.161 22.161 1.819.6 1.819 3.19 0 3.79z" fill="#fea613"/></g><g><path d="m161.333 478.157c-3.192 2.693-7.302 4.66-12.969 6.528-1.819.6-1.819 3.19 0 3.79 13.048 4.302 17.859 9.113 22.161 22.161.6 1.819 3.19 1.819 3.79 0 1.868-5.667 3.835-9.777 6.528-12.969-3.919-10.93-8.58-15.591-19.51-19.51z" fill="#fe9901"/></g><g><path d="m394.339 380.649c-14.14 4.612-19.243 9.715-23.855 23.855-.604 1.851-3.206 1.851-3.81 0-4.612-14.14-9.715-19.243-23.855-23.855-1.851-.604-1.851-3.206 0-3.81 14.14-4.612 19.243-9.715 23.855-23.855.604-1.851 3.206-1.851 3.81 0 4.612 14.14 9.715 19.243 23.855 23.855 1.851.604 1.851 3.207 0 3.81z" fill="#fff"/></g><g><path d="m355.862 370.604c-3.293 2.504-7.455 4.413-13.044 6.236-1.851.604-1.851 3.206 0 3.81 14.14 4.612 19.243 9.715 23.855 23.855.604 1.851 3.206 1.851 3.81 0 1.787-5.48 3.656-9.592 6.088-12.855-4.169-11.844-9.057-16.855-20.709-21.046z" fill="#f3f0f3"/></g><g><circle cx="252" cy="288" fill="#fed402" r="14.863"/></g><g><path d="m146.521 287.364-6.157 6.157c-.524.524-1.375.524-1.899 0l-6.157-6.157c-.524-.524-.524-1.375 0-1.899l6.157-6.157c.524-.524 1.375-.524 1.899 0l6.157 6.157c.524.524.524 1.374 0 1.899z" fill="#fed402"/></g><g><path d="m210.607 343.449-6.157 6.157c-.524.524-1.375.524-1.899 0l-6.157-6.157c-.524-.524-.524-1.375 0-1.899l6.157-6.157c.524-.524 1.375-.524 1.899 0l6.157 6.157c.524.525.524 1.375 0 1.899z" fill="#fed402"/></g><g><path d="m405.607 155.449-6.157 6.157c-.524.524-1.375.524-1.899 0l-6.157-6.157c-.524-.524-.524-1.375 0-1.899l6.157-6.157c.524-.524 1.375-.524 1.899 0l6.157 6.157c.524.525.524 1.375 0 1.899z" fill="#fed402"/></g><g><path d="m340.607 112.449-6.157 6.157c-.524.524-1.375.524-1.899 0l-6.157-6.157c-.524-.524-.524-1.374 0-1.899l6.157-6.157c.524-.524 1.375-.524 1.899 0l6.157 6.157c.524.525.524 1.375 0 1.899z" fill="#fed402"/></g><g><path d="m225.607 371.449-6.157 6.157c-.524.524-1.375.524-1.899 0l-6.157-6.157c-.524-.524-.524-1.375 0-1.899l6.157-6.157c.524-.524 1.375-.524 1.899 0l6.157 6.157c.524.525.524 1.375 0 1.899z" fill="#fff"/></g></symbol><symbol id="uranus" viewBox="0 0 510.001 510.001"><title>uranus</title><linearGradient id="lg1"><stop offset="0" stop-color="#eaf6ff"/><stop offset=".5213" stop-color="#d8ecfe"/><stop offset="1" stop-color="#b3dafe"/></linearGradient><linearGradient id="SVGID_1_" gradientUnits="userSpaceOnUse" x1="31.724" x2="140.522" xlink:href="#lg1" y1="97.273" y2="97.273"/><linearGradient id="SVGID_2_" gradientUnits="userSpaceOnUse" x1="9.724" x2="116.41" xlink:href="#lg1" y1="100.809" y2="100.809"/><linearGradient id="lg2"><stop offset="0" stop-color="#60b7ff"/><stop offset=".5857" stop-color="#0182fc"/><stop offset="1" stop-color="#2740b0"/></linearGradient><linearGradient id="SVGID_3_" gradientUnits="userSpaceOnUse" x1="36.099" x2="473.904" xlink:href="#lg2" y1="255.001" y2="255.001"/><linearGradient id="SVGID_4_" gradientUnits="userSpaceOnUse" x1="-86.666" x2="454.352" xlink:href="#lg2" y1="187.928" y2="187.928"/><linearGradient id="SVGID_5_" gradientUnits="userSpaceOnUse" x1="-86.666" x2="454.352" xlink:href="#lg2" y1="291.156" y2="291.156"/><linearGradient id="SVGID_6_" gradientUnits="userSpaceOnUse" x1="-86.666" x2="454.352" xlink:href="#lg2" y1="85.576" y2="85.576"/><linearGradient id="SVGID_7_" gradientUnits="userSpaceOnUse" x1="-86.66" x2="454.349" xlink:href="#lg2" y1="255.001" y2="255.001"/><linearGradient id="SVGID_8_" gradientUnits="userSpaceOnUse" x1="-13.87" x2="594.002" xlink:href="#lg1" y1="255.003" y2="255.003"/><linearGradient id="SVGID_9_" gradientUnits="userSpaceOnUse" x1="-1.999" x2="384.106" xlink:href="#lg1" y1="255.003" y2="255.003"/><linearGradient id="SVGID_10_" gradientUnits="userSpaceOnUse" x1="-130.999" x2="89.385" xlink:href="#lg1" y1="321.141" y2="321.141"/><linearGradient id="SVGID_11_" gradientUnits="userSpaceOnUse" x1="370.554" x2="510.001" xlink:href="#lg1" y1="440.277" y2="440.277"/><linearGradient id="SVGID_12_" gradientUnits="userSpaceOnUse" x1="322.001" x2="466.088" xlink:href="#lg1" y1="440.277" y2="440.277"/><linearGradient id="SVGID_13_" gradientUnits="userSpaceOnUse" x1="322.001" x2="466.088" xlink:href="#lg1" y1="438.751" y2="438.751"/><linearGradient id="SVGID_14_" gradientUnits="userSpaceOnUse" x1="322.001" x2="466.088" xlink:href="#lg1" y1="409.251" y2="409.251"/><linearGradient id="SVGID_15_" gradientUnits="userSpaceOnUse" x1="381.119" x2="434.128" xlink:href="#lg1" y1="26.054" y2="26.054"/><linearGradient id="SVGID_16_" gradientUnits="userSpaceOnUse" x1="-12.162" x2="40.848" xlink:href="#lg1" y1="483.947" y2="483.947"/><g><g><circle cx="92.891" cy="97.273" fill="url(#SVGID_1_)" r="50.067"/><path d="m49.971 123.06c18.691-26.714 41.92-50.014 68.577-68.781 14.618 8.743 24.41 24.722 24.41 42.994 0 27.651-22.416 50.067-50.067 50.067-18.219 0-34.161-9.733-42.92-24.28z" fill="url(#SVGID_2_)"/></g><g><circle cx="255.001" cy="255.001" fill="url(#SVGID_3_)" r="218.903"/><g><path d="m100.004 212.814c7.251-2.129 14.541-4.423 21.856-6.879 11.869-3.984 18.172-16.932 14.03-28.747l-.003-.008c-4.063-11.59-16.687-17.8-28.328-13.885-6.762 2.274-13.493 4.396-20.179 6.362-10.259 3.017-16.99 12.812-16.088 23.468 1.199 14.161 15.076 23.693 28.712 19.689z" fill="url(#SVGID_4_)"/><path d="m168.146 303.471c0-7.522-1.714-14.643-4.771-20.995 14.315-.086 25.895-11.714 25.895-26.049 0-14.389-11.665-26.054-26.053-26.054s-26.053 11.665-26.053 26.054c0 .629.03 1.252.074 1.87-5.446-2.118-11.363-3.293-17.558-3.293-26.768 0-48.468 21.7-48.468 48.468s21.7 48.467 48.468 48.467c26.767-.001 48.466-21.7 48.466-48.468z" fill="url(#SVGID_5_)"/><circle cx="197.216" cy="85.576" fill="url(#SVGID_6_)" r="26.053"/><path d="m255.001 36.101c-6.75 0-13.42.32-20.01.92 29.45 2.17 39.08 40.22 14.81 56.57-15.23 10.25-31.56 20.05-48.76 29.24-11.15 5.96-15.69 20-10.04 31.3 3.79 7.58 11.36 11.92 19.24 11.92 3.41 0 6.89-.82 10.13-2.54 21.29-11.3 41.42-23.52 60.04-36.39 10.79-7.47 25.51-5.43 33.96 4.6 4.06 4.81 6.02 10.65 6.02 16.44 0 7.93-3.67 15.78-10.67 20.8-9.3 6.66-19.06 13.16-29.23 19.45-9.03 5.58-13.33 16.64-9.82 26.65 4.9 13.96 21.1 19.25 33.19 11.78 30.73-19 58.21-39.84 81.08-61.58 10.37-9.86 27.39-6.14 32.8 7.11.05.13.11.27.16.4 2.95 7.27 1.44 15.6-3.87 21.37-6.19 6.73-14.12 15.14-18.22 18.99-22.26 20.94-49.44 41.03-80.07 59.24-4.66-17.3-20.99-29.82-40.03-28.59-19.72 1.29-35.48 17.57-36.17 37.32-.34 9.8 2.97 18.83 8.66 25.83-7.26 3.17-14.53 6.19-21.79 9.04-11.32 4.44-17.58 16.93-13.65 28.43 4.16 12.15 17.58 18.34 29.47 13.69 11.3-4.41 22.6-9.19 33.87-14.32 62.4-28.46 117.39-65.05 157.23-104.34.37 5.14.55 10.34.55 15.57 0 5.15-.18 10.25-.53 15.3-31 31.66-73.59 61.83-122.37 86.44-56.96 28.73-115.01 46.2-163.8 49.3-.79.05-1.58.1-2.37.14-20.79 1.14-38.71-.57-52.53-4.77 18.13 20.14 39.94 36.89 64.38 49.2 15.37-1.31 31.41-3.8 47.91-7.42 40.74-8.93 84.21-24.66 126.76-46.13.3-.15.6-.3.9-.45 19.1-9.68 35.78 16.34 19.03 29.69-32.5 25.88-72.52 42.72-116.27 46.68 6.59.6 13.26.92 20.01.92 120.9 0 218.9-98 218.9-218.9s-98-218.9-218.9-218.9zm88.88 96.82c-14.39 0-26.05-11.66-26.05-26.05s11.66-26.05 26.05-26.05 26.06 11.66 26.06 26.05-11.67 26.05-26.06 26.05zm52.73 263.22c-14.39 0-26.06-11.66-26.06-26.05s11.67-26.06 26.06-26.06 26.05 11.67 26.05 26.06-11.66 26.05-26.05 26.05z" fill="url(#SVGID_7_)"/></g><path d="m502.031 130.351c-16.81-33.33-57.24-50.74-114.34-49.47 18.68 14.26 35 31.46 48.27 50.91 12.64 4.21 21.57 10.62 25.75 18.9 4.18 8.27 4.03 19.24-.07 31.89-4.6 14.16-14.15 30.42-28.16 47.37-.5.6-1 1.2-1.51 1.8-31.48 37.42-80.02 73.74-136.99 102.49-56.96 28.73-115.01 46.2-163.8 49.3-.79.05-1.58.1-2.37.14-21.93 1.2-40.67-.77-54.77-5.48-12.64-4.21-21.57-10.62-25.75-18.9-4.18-8.27-4.03-19.23.07-31.88-7.6-21.7-11.88-44.96-12.23-69.17-34.97 45.18-44.99 88.06-28.16 121.4 16.24 32.2 54.52 49.54 108.57 49.54 1.9 0 3.82-.02 5.77-.07 2.94-.06 5.93-.18 8.96-.34 18.17-.99 37.41-3.73 57.3-8.09 40.74-8.93 84.21-24.66 126.76-46.13 42.54-21.47 81.02-47.09 112.41-74.55 15.33-13.41 28.97-27.26 40.56-41.29 1.93-2.33 3.79-4.65 5.57-6.97 23.89-30.86 36.13-60.64 36.13-87.05 0-12.26-2.64-23.78-7.97-34.35z" fill="url(#SVGID_8_)"/><path d="m510.001 164.701c0 26.41-12.24 56.19-36.13 87.05-1.78 2.32-3.64 4.64-5.57 6.97-11.59 14.03-25.23 27.88-40.56 41.29-31.39 27.46-69.87 53.08-112.41 74.55-42.55 21.47-86.02 37.2-126.76 46.13-19.89 4.36-39.13 7.1-57.3 8.09-3.03.16-6.02.28-8.96.34-1.95.05-3.87.07-5.77.07-6.71 0-13.18-.27-19.4-.8 6.96-.52 14.07-1.28 21.31-2.29 9.82-1.36 19.88-3.17 30.1-5.41 40.74-8.93 84.21-24.66 126.76-46.13 42.54-21.47 81.02-47.09 112.41-74.55 15.33-13.41 28.97-27.26 40.56-41.29 18.41-22.28 30.83-44.09 37.05-64.58 3.09-10.17 4.65-20.02 4.65-29.44 0-12.26-2.64-23.78-7.97-34.35-12.05-23.89-36.25-39.6-70.03-46.11-1.41-1.14-2.84-2.26-4.29-3.36 57.1-1.27 97.53 16.14 114.34 49.47 5.33 10.57 7.97 22.09 7.97 34.35z" fill="url(#SVGID_9_)"/><path d="m74.032 378.201c-12.64-4.21-21.57-10.62-25.74-18.9-4.18-8.27-4.03-19.23.07-31.88-3.588-10.239-6.427-20.812-8.463-31.68-2.29-12.172-3.582-24.697-3.767-37.49-8.93 11.537-16.222 22.923-21.867 34.039.997 5.81 2.227 11.54 3.677 17.182 2.701 10.513 3.277 21.413 2.414 32.233-.534 6.692.411 12.631 2.916 17.595 6.88 13.62 26.58 22.16 54.51 24.23 8.23.62 17.16.67 26.69.12 0-.01 0-.01 0-.01-11.631-.739-21.891-2.589-30.44-5.439z" fill="url(#SVGID_10_)"/></g><g><circle cx="440.277" cy="440.277" fill="url(#SVGID_11_)" r="69.723"/><g><path d="m440.278 370.554c-4.271 0-8.446.405-12.506 1.14 32.536 5.896 57.218 34.347 57.218 68.583 0 11.15-2.632 21.678-7.286 31.021-2.359-10.62-12.135-18.449-23.616-17.755-11.157.674-20.339 9.637-21.257 20.777-.482 5.852 1.252 11.288 4.455 15.56 5.085 6.783 1.517 16.574-6.756 18.422-.912.204-1.832.39-2.757.558 4.059.736 8.234 1.14 12.506 1.14 38.507 0 69.723-31.216 69.723-69.723s-31.218-69.723-69.724-69.723z" fill="url(#SVGID_12_)"/><circle cx="405.022" cy="438.751" fill="url(#SVGID_13_)" r="14.75"/><circle cx="449.946" cy="409.251" fill="url(#SVGID_14_)" r="14.75"/></g></g><circle cx="419.334" cy="26.054" fill="url(#SVGID_15_)" r="26.053"/><circle cx="26.053" cy="483.947" fill="url(#SVGID_16_)" r="26.053"/></g></symbol><symbol id="rocket" viewBox="0 0 512 512"><title>rocket</title><path d="m497.22 47.84c.14 3.09.22 6.16.22 9.21a192.591 192.591 0 0 1 -3.19 35l-.21-.04a82.7 82.7 0 0 1 -40.61-36.81l-.1-.19a192.782 192.782 0 0 1 43.89-7.17z" fill="#5f6a78"/><path d="m373.28 237.6q-5.415 2.085-10.99 3.84l-15.35-13.97-13.48-12.28-16.72-15.21q1.17-5.31 2.65-10.51a193.1 193.1 0 0 1 27.16-57.72 195.747 195.747 0 0 1 106.78-76.74l.1.19a82.7 82.7 0 0 0 40.61 36.81l.21.04a193.531 193.531 0 0 1 -66.54 113.59 192.508 192.508 0 0 1 -54.43 31.96z" fill="#e5f5fd"/><path d="m479.15 427.77a23.815 23.815 0 0 0 9.32 5.78 23.978 23.978 0 0 0 -15.09 15.14 23.888 23.888 0 0 0 -15.09-15.14 23.873 23.873 0 0 0 15.09-15.13 23.833 23.833 0 0 0 5.77 9.35z" fill="#3090fc"/><path d="m433.52 266.18-35.39 39.44-22.59-20.83a33.639 33.639 0 0 1 -2.26-47.19 192.508 192.508 0 0 0 54.43-31.96l.03.03a22.748 22.748 0 0 0 4.32 28.32 22.755 22.755 0 0 1 1.51 32.13z" fill="#5f6a78"/><path d="m398.13 305.62 35.39-39.44c-6.58 100.73-90.83 180.41-193.8 180.41a194.6 194.6 0 0 1 -73.95-14.49v-.01c103.28-56.69 156.88-141.28 173.77-171.32l.43-.47.39.36 6.58-33.19 15.35 13.97q5.565-1.755 10.99-3.84a33.639 33.639 0 0 0 2.26 47.19z" fill="#49bdff"/><path d="m366.6 107.26a196.108 196.108 0 0 0 -20.05 24.49 22.765 22.765 0 0 1 -28.6-1.64 22.754 22.754 0 0 0 -32.14 1.5l-36 38.98 22.85 20.55a33.667 33.667 0 0 0 46.73-1.67q-1.485 5.205-2.65 10.51l16.72 15.21-33.44 8.74.35.32c-9.16 12.43-31.56 42.14-59.54 74.48l-5.15-6.02c-.79-.92-1.54-1.88-2.25-2.87l-10.11-14.01c-5.59-7.75-14.53-12.89-24.13-12.64a4.961 4.961 0 0 1 -2.74-.72l-20.66-12.32a20.2 20.2 0 0 0 -19.75-.48l-10.89 5.8a21.46 21.46 0 0 1 -28.17-7.37l-10.58-16.6a22.773 22.773 0 0 1 .39-25.06 25.942 25.942 0 0 1 24.82-11.16l15.86 2.01a14.29 14.29 0 0 0 14.17-6.76 25.1 25.1 0 0 1 24.85-12.19l6.93.88a14.186 14.186 0 0 0 12.92-5.33l6.11-7.89a20.438 20.438 0 0 0 .62-24.31l-13.18-18.89a60.759 60.759 0 0 0 -19.3-17.77 60.869 60.869 0 0 1 -5.81-3.85l-11.11-8.29-14.07-10.53a195.227 195.227 0 0 1 217 24.9z" fill="#49bdff"/><path d="m300.37 224.25-.35-.32 33.44-8.74 13.48 12.28-6.58 33.19-.39-.36z" fill="#4a5160"/><path d="m339.97 260.3-.43.47c-16.89 30.04-70.49 114.63-173.77 171.32a429.546 429.546 0 0 1 -55.61 25.55s-177.35 54.02-48.92-127.41c-68.22 132.37 56.68 76.9 59.22 75.68l.01-.01c16.5-8.09 34.35-21.28 52.22-37.02 23.71-20.87 47.45-46.23 68.14-70.15 27.98-32.34 50.38-62.05 59.54-74.48z" fill="#fadf4a"/><path d="m317.95 130.11a22.765 22.765 0 0 0 28.6 1.64 193.1 193.1 0 0 0 -27.16 57.72 33.667 33.667 0 0 1 -46.73 1.67l-22.85-20.55 36-38.98a22.754 22.754 0 0 1 32.14-1.5z" fill="#5f6a78"/><path d="m235.68 292.71 5.15 6.02c-20.69 23.92-44.43 49.28-68.14 70.15l-.66-.74a28.185 28.185 0 0 0 -4.65-9.11l-22.43-29.24a25.915 25.915 0 0 1 -4.4-8.82l-7.4-26.55a28.052 28.052 0 0 0 -19.6-19.41l-1.61-.43a20.888 20.888 0 0 1 -8.74-4.87l-13.81-12.92a31.32 31.32 0 0 1 -5.58-6.98 30.8 30.8 0 0 0 -32.48-14.66l-2.65.52-2.33-.22c6.19-66.62 46.43-123.44 103.25-153.09l14.07 10.53 11.11 8.29a60.869 60.869 0 0 0 5.81 3.85 60.759 60.759 0 0 1 19.3 17.77l13.18 18.89a20.438 20.438 0 0 1 -.62 24.31l-6.11 7.89a14.186 14.186 0 0 1 -12.92 5.33l-6.93-.88a25.1 25.1 0 0 0 -24.85 12.19 14.29 14.29 0 0 1 -14.17 6.76l-15.86-2.01a25.942 25.942 0 0 0 -24.82 11.16 22.773 22.773 0 0 0 -.39 25.06l10.58 16.6a21.46 21.46 0 0 0 28.17 7.37l10.89-5.8a20.2 20.2 0 0 1 19.75.48l20.66 12.32a4.961 4.961 0 0 0 2.74.72c9.6-.25 18.54 4.89 24.13 12.64l10.11 14.01c.71.99 1.46 1.95 2.25 2.87z" fill="#9be147"/><path d="m226.65 480.08a23.722 23.722 0 0 0 9.32 5.79 23.933 23.933 0 0 0 -15.09 15.13 23.851 23.851 0 0 0 -15.09-15.13 23.918 23.918 0 0 0 15.09-15.14 23.9 23.9 0 0 0 5.77 9.35z" fill="#3090fc"/><path d="m177.35 20.35a23.924 23.924 0 0 0 9.33 5.78 23.918 23.918 0 0 0 -15.09 15.14 23.911 23.911 0 0 0 -15.09-15.14 23.873 23.873 0 0 0 15.09-15.13 23.927 23.927 0 0 0 5.76 9.35z" fill="#3090fc"/><path d="m172.03 368.14.66.74c-17.87 15.74-35.72 28.93-52.22 37.02l-.01.01a193.941 193.941 0 0 1 -59.04-75.76 191.509 191.509 0 0 1 -15.91-76.68q0-9.12.84-18.02l2.33.22 2.65-.52a30.8 30.8 0 0 1 32.48 14.66 31.32 31.32 0 0 0 5.58 6.98l13.81 12.92a20.888 20.888 0 0 0 8.74 4.87l1.61.43a28.052 28.052 0 0 1 19.6 19.41l7.4 26.55a25.915 25.915 0 0 0 4.4 8.82l22.43 29.24a28.185 28.185 0 0 1 4.65 9.11z" fill="#49bdff"/><path d="m428.16 123.7a24.086 24.086 0 1 1 -34.03 1.6 24.093 24.093 0 0 1 34.03-1.6z" fill="#5f6a78"/><path d="m322 258.44a13.67 13.67 0 0 1 -.34 3.8 13.886 13.886 0 0 1 -11.18 10.53l-17.55 3.02 1.36-17.76a13.882 13.882 0 0 1 27.71.41z" fill="#ed6337"/><path d="m239.72 60.35a194.166 194.166 0 0 0 -90.12 22.01l14.07 10.53 11.11 8.29 2.82 1.18a195.4 195.4 0 0 1 188.888 4.806 194.1 194.1 0 0 0 -126.768-46.816z" fill="#3090fc"/><path d="m176.952 102.711c-.732-.5-1.463-1-2.172-1.531l-11.11-8.29-14.07-10.53c-56.82 29.65-97.06 86.47-103.25 153.09l2.33.22 2.65-.52a30.749 30.749 0 0 1 24.912 6.012c10.184-60.152 48.336-110.867 100.71-138.451z" fill="#50dd5a"/><path d="m92.42 337.15a191.509 191.509 0 0 1 -15.91-76.68q0-9.12.84-18.02l.491.046a30.772 30.772 0 0 0 -26.511-7.346l-2.65.52-2.33-.22q-.84 8.9-.84 18.02a191.509 191.509 0 0 0 15.91 76.68 193.941 193.941 0 0 0 59.04 75.76l.01-.01a157.093 157.093 0 0 0 13.983-7.846 193.413 193.413 0 0 1 -42.033-60.904z" fill="#3090fc"/><g fill="#284268"><path d="m97.859 84.941a5.974 5.974 0 0 0 3.764-1.33c3.783-3.052 7.709-6.01 11.669-8.793a6 6 0 1 0 -6.9-9.818c-4.176 2.934-8.316 6.054-12.3 9.271a6 6 0 0 0 3.771 10.67z"/><path d="m26.431 179.6a5.995 5.995 0 0 0 7.74-3.476 216.68 216.68 0 0 1 50.216-77.062 6 6 0 1 0 -8.461-8.508 228.6 228.6 0 0 0 -52.972 81.309 6 6 0 0 0 3.477 7.737z"/><path d="m437.017 362.754a6 6 0 0 0 -8.23 2.069c-3.36 5.618-7.03 11.162-10.907 16.48a6 6 0 1 0 9.695 7.07c4.091-5.61 7.964-11.461 11.511-17.39a6 6 0 0 0 -2.069-8.229z"/><path d="m462.183 318.11a229.166 229.166 0 0 0 7.4-35.7 233.739 233.739 0 0 0 1.8-28.933 6 6 0 0 0 -12 0 221.753 221.753 0 0 1 -1.7 27.442 217.279 217.279 0 0 1 -7.008 33.829c-1.959 6.7-4.271 13.382-6.873 19.853-1.6 3.976-3.335 7.946-5.161 11.8a6 6 0 1 0 10.846 5.137c1.928-4.072 3.761-8.265 5.45-12.463 2.737-6.835 5.178-13.888 7.246-20.965z"/><ellipse cx="132.44" cy="56.676" rx="6.925" ry="6.919"/><path d="m406.189 396.45a6.92 6.92 0 1 0 6.925 6.92 6.93 6.93 0 0 0 -6.925-6.92z"/><path d="m344.526 479.866a8.012 8.012 0 1 0 8.012 8.011 8.021 8.021 0 0 0 -8.012-8.011z"/><circle cx="356.598" cy="461.722" r="11.03"/><path d="m40.721 55.272a8.012 8.012 0 1 0 -8.012-8.012 8.021 8.021 0 0 0 8.012 8.012z"/><path d="m52.793 32.134a11.03 11.03 0 1 0 -11.03-11.034 11.041 11.041 0 0 0 11.03 11.034z"/><path d="m154.6 31.825a17.98 17.98 0 0 1 11.3 11.336 6 6 0 0 0 11.387 0 17.982 17.982 0 0 1 11.3-11.336 6 6 0 0 0 0-11.381 17.985 17.985 0 0 1 -11.3-11.337 6 6 0 0 0 -11.387 0 17.982 17.982 0 0 1 -11.3 11.337 6 6 0 0 0 0 11.381zm16.992-8.9a30.278 30.278 0 0 0 3.2 3.206 30.278 30.278 0 0 0 -3.2 3.206 30.459 30.459 0 0 0 -3.2-3.206 30.459 30.459 0 0 0 3.198-3.203z"/><path d="m237.875 480.175a17.982 17.982 0 0 1 -11.3-11.336 6 6 0 0 0 -11.387 0 17.98 17.98 0 0 1 -11.3 11.336 6 6 0 0 0 0 11.381 17.982 17.982 0 0 1 11.3 11.337 6 6 0 0 0 11.387 0 17.983 17.983 0 0 1 11.3-11.337 6 6 0 0 0 0-11.381zm-16.992 8.9a30.364 30.364 0 0 0 -3.2-3.206 30.459 30.459 0 0 0 3.2-3.206 30.269 30.269 0 0 0 3.2 3.206 30.175 30.175 0 0 0 -3.2 3.203z"/><path d="m490.375 427.864a17.982 17.982 0 0 1 -11.3-11.336 6 6 0 0 0 -11.387 0 17.98 17.98 0 0 1 -11.3 11.336 6 6 0 0 0 0 11.381 17.982 17.982 0 0 1 11.3 11.337 6 6 0 0 0 11.387 0 17.985 17.985 0 0 1 11.3-11.337 6 6 0 0 0 0-11.381zm-16.992 8.9a30.459 30.459 0 0 0 -3.2-3.206 30.459 30.459 0 0 0 3.2-3.206 30.184 30.184 0 0 0 3.2 3.206 30.184 30.184 0 0 0 -3.2 3.203z"/><path d="m496.937 41.847a197.954 197.954 0 0 0 -120.453 47.841q-5.31 4.545-10.265 9.449a200.86 200.86 0 0 0 -126.5-44.783c-110.4 0-200.214 89.325-200.214 199.119a198.279 198.279 0 0 0 15 75.912c-42.698 60.952-55.505 101.662-39.111 124.374 9.693 13.428 28.016 17.351 46.122 17.351 24.535 0 48.671-7.2 50.4-7.73.122-.037.243-.078.362-.123a437.719 437.719 0 0 0 53.922-24.537 201.271 201.271 0 0 0 210.69-40.2 197.834 197.834 0 0 0 62.468-129.973 28.781 28.781 0 0 0 -3.257-39 16.813 16.813 0 0 1 -3.618-20.023 199.736 199.736 0 0 0 70.728-161.965 5.985 5.985 0 0 0 -6.274-5.712zm-257.216 24.507a188.862 188.862 0 0 1 118.168 41.484 203.378 203.378 0 0 0 -15.493 19.47 16.813 16.813 0 0 1 -20.408-1.639 28.749 28.749 0 0 0 -40.584 1.873l-36.004 38.974a6 6 0 0 0 .4 8.533l22.85 20.551a39.488 39.488 0 0 0 26.484 10.126 39.947 39.947 0 0 0 16.1-3.388 5.982 5.982 0 0 0 1.467 2.078l8.535 7.77-22.736 5.942a6 6 0 0 0 -4.309 4.371v.021c-9.255 12.493-28.89 38.367-53.343 66.995l-.6-.7c-.681-.8-1.338-1.633-1.949-2.481l-10.109-14.01c-6.872-9.527-17.409-15.142-28.326-15.142-.187 0-.376 0-.564 0l-20.44-12.189a26.242 26.242 0 0 0 -25.64-.619l-10.887 5.8a15.516 15.516 0 0 1 -20.293-5.3l-10.575-16.6a16.752 16.752 0 0 1 .288-18.454 19.973 19.973 0 0 1 19.108-8.581l15.862 2a20.227 20.227 0 0 0 20.1-9.676 19.078 19.078 0 0 1 18.91-9.272l6.937.881a20.171 20.171 0 0 0 18.41-7.61l6.112-7.885a26.4 26.4 0 0 0 .8-31.42l-13.176-18.894a67.253 67.253 0 0 0 -21.2-19.524 55.441 55.441 0 0 1 -5.243-3.466l-17.248-12.9a188.019 188.019 0 0 1 78.596-17.119zm93.312 75.621a199.717 199.717 0 0 0 -18.983 44.317 27.72 27.72 0 0 1 -37.376.382l-18.334-16.482 31.908-34.539a16.749 16.749 0 0 1 23.662-1.11 28.732 28.732 0 0 0 19.123 7.432zm-20.8 84.965 19.584-5.12 8.578 7.808-3.852 19.443zm3.777 31.779a7.872 7.872 0 0 1 -6.542 8.141l-9.971 1.713.772-10.084a7.946 7.946 0 0 1 5.55-6.943 7.816 7.816 0 0 1 1.943-.336q.189-.009.378-.009a7.891 7.891 0 0 1 7.87 7.518zm-166.876-169.219 22.053 16.491a67.506 67.506 0 0 0 6.385 4.222 55.182 55.182 0 0 1 17.4 16.016l13.176 18.895a14.459 14.459 0 0 1 -.437 17.2l-6.111 7.884a8.135 8.135 0 0 1 -7.417 3.058l-6.936-.882a31.06 31.06 0 0 0 -30.778 15.118 8.354 8.354 0 0 1 -8.239 3.829l-15.859-2a31.909 31.909 0 0 0 -30.533 13.73 28.743 28.743 0 0 0 -.491 31.657l10.575 16.6a27.572 27.572 0 0 0 36.057 9.441l10.886-5.8a14.181 14.181 0 0 1 13.85.334l20.663 12.329a11.106 11.106 0 0 0 5.971 1.562c7.238-.176 14.387 3.607 19.11 10.156l10.11 14.012c.8 1.114 1.664 2.207 2.558 3.253l1.786 2.09q-4.569 5.232-9.31 10.515-26.181 29.144-48.963 49.908a34.26 34.26 0 0 0 -2.5-3.747l-22.429-29.24a19.836 19.836 0 0 1 -3.384-6.773l-7.4-26.556a34.048 34.048 0 0 0 -23.8-23.584l-1.614-.438a14.782 14.782 0 0 1 -6.209-3.457l-13.812-12.917a25.151 25.151 0 0 1 -4.505-5.63 36.869 36.869 0 0 0 -35.843-17.968c7.99-60.054 44.735-111.208 95.99-139.308zm-97.627 163.973c0-4.142.15-8.249.419-12.324l.558-.11a24.838 24.838 0 0 1 26.156 11.814 37.117 37.117 0 0 0 6.653 8.315l13.807 12.922a26.813 26.813 0 0 0 11.264 6.276l1.615.438a21.992 21.992 0 0 1 15.388 15.225l7.4 26.556a31.781 31.781 0 0 0 5.42 10.854l22.429 29.24a22.135 22.135 0 0 1 2.735 4.687q-24.325 20.975-44.171 31.434a185.584 185.584 0 0 1 -69.673-145.327zm9.7 90.4a198.873 198.873 0 0 0 47.658 60.293c-16.313 5.971-46.152 13.966-57.208 2.534-8.742-9.034-5.317-31.152 9.543-62.826zm47.032 108.082c-18.3 5.523-68.373 15.213-83.116-5.227-6.535-9.06-8.4-27.273 10.41-63.837-2.014 14.35.532 25.047 7.621 32.278 6.746 6.88 16.625 9.288 27.162 9.288 24.443 0 52.4-12.973 52.8-13.167 29.579-14.515 66.392-46.16 109.418-94.057 30.379-33.817 56.057-67.154 68.706-84.081l6.669 6.071c-.235 0-.467-.012-.7 0a19.88 19.88 0 0 0 -18.893 18.348l-1.359 17.76a6 6 0 0 0 7 6.371l17.558-3.015a19.869 19.869 0 0 0 16.485-20.531c-.011-.235-.048-.465-.067-.7l4.341 3.952c-25.192 43.613-93.855 141.566-224.039 190.548zm260.452-62.2a189.351 189.351 0 0 1 -188.72 41.2c92.129-54.09 143.186-129.341 163.689-165.28a6 6 0 0 0 2.59-3.846l4.51-22.766 7.489 6.818a5.967 5.967 0 0 0 2.591 1.362 39.758 39.758 0 0 0 10.63 41.957l22.6 20.831a6 6 0 0 0 4.067 1.589c.094 0 .189 0 .284-.007a6 6 0 0 0 4.182-1.987l22.8-25.416a186.016 186.016 0 0 1 -56.716 105.55zm60.409-127.638-31.371 34.969-18.129-16.71a27.721 27.721 0 0 1 -2.749-37.724 198.322 198.322 0 0 0 41.972-22.588 28.728 28.728 0 0 0 9.193 18.358 16.781 16.781 0 0 1 1.084 23.695zm-65.352-27.458-40.375-36.759a189.694 189.694 0 0 1 60.914-99.1 186.993 186.993 0 0 1 66.193-36.731 89.151 89.151 0 0 0 36.927 33.5 187.6 187.6 0 0 1 -123.659 139.09zm125.832-151.459a77.169 77.169 0 0 1 -26.973-24.462 188.238 188.238 0 0 1 28.8-4.524 187.314 187.314 0 0 1 -1.827 28.986z"/><path d="m432.2 119.264a30.085 30.085 0 1 0 -20.291 52.336q.72 0 1.445-.034a30.085 30.085 0 0 0 18.842-52.3zm-6.88 34.422a18.085 18.085 0 1 1 4.692-13.022 17.969 17.969 0 0 1 -4.696 13.022z"/><path d="m197.132 380.5q-1.394 1.113-2.806 2.219a6 6 0 0 0 7.4 9.444q1.451-1.139 2.884-2.281a6 6 0 0 0 -7.482-9.382z"/><path d="m224.771 356.479c-4.809 4.547-9.778 9.037-14.77 13.344a6 6 0 1 0 7.84 9.085c5.129-4.426 10.234-9.038 15.175-13.709a6 6 0 0 0 -8.245-8.72z"/><path d="m273.215 312.476a6 6 0 0 0 -8.441.868c-8.7 10.695-17.954 21.071-27.5 30.841a6 6 0 0 0 8.582 8.388c9.8-10.029 19.3-20.68 28.23-31.657a6 6 0 0 0 -.871-8.44z"/></g></symbol><symbol id="jupiter" viewBox="0 0 510 510"><title>jupiter</title><linearGradient id="lg1"><stop offset="0" stop-color="#eaf6ff"/><stop offset=".5213" stop-color="#d8ecfe"/><stop offset="1" stop-color="#b3dafe"/></linearGradient><linearGradient id="SVGID_1_" gradientUnits="userSpaceOnUse" x1="3.333" x2="112.131" xlink:href="#lg1" y1="68.882" y2="68.882"/><linearGradient id="SVGID_2_" gradientUnits="userSpaceOnUse" x1="-18.667" x2="88.019" xlink:href="#lg1" y1="72.419" y2="72.419"/><linearGradient id="lg2"><stop offset="0" stop-color="#fef056"/><stop offset=".5213" stop-color="#f4d902"/><stop offset="1" stop-color="#fe9738"/></linearGradient><linearGradient id="SVGID_3_" gradientUnits="userSpaceOnUse" x1="-8.26" x2="508.137" xlink:href="#lg2" y1="255" y2="255"/><linearGradient id="lg3"><stop offset="0" stop-color="#fbc56d"/><stop offset=".5841" stop-color="#fe9738"/><stop offset=".9984" stop-color="#fb2b3a"/></linearGradient><linearGradient id="SVGID_4_" gradientUnits="userSpaceOnUse" x1="-109" x2="597.375" xlink:href="#lg3" y1="457.007" y2="457.007"/><linearGradient id="SVGID_5_" gradientUnits="userSpaceOnUse" x1="-109" x2="597.375" xlink:href="#lg3" y1="52.418" y2="52.418"/><linearGradient id="SVGID_6_" gradientUnits="userSpaceOnUse" x1="-109" x2="597.375" xlink:href="#lg3" y1="168.034" y2="168.034"/><linearGradient id="SVGID_7_" gradientUnits="userSpaceOnUse" x1="-111.838" x2="468.681" xlink:href="#lg2" y1="255" y2="255"/><linearGradient id="SVGID_8_" gradientUnits="userSpaceOnUse" x1="-109" x2="597.375" xlink:href="#lg3" y1="384.44" y2="384.44"/><linearGradient id="SVGID_9_" gradientUnits="userSpaceOnUse" x1="-19.5" x2="220.857" y1="401.426" y2="401.426"><stop offset="0" stop-color="#fd8087"/><stop offset=".5213" stop-color="#fb2b3a"/><stop offset="1" stop-color="#d90d80"/></linearGradient><linearGradient id="SVGID_10_" gradientUnits="userSpaceOnUse" x1="-42.682" x2="428.405" xlink:href="#lg3" y1="457.007" y2="457.007"/><linearGradient id="SVGID_11_" gradientUnits="userSpaceOnUse" x1="-109" x2="597.375" xlink:href="#lg3" y1="261.827" y2="261.827"/><linearGradient id="SVGID_12_" gradientUnits="userSpaceOnUse" x1="-127" x2="487.359" xlink:href="#lg3" y1="168.034" y2="168.034"/><linearGradient id="SVGID_13_" gradientUnits="userSpaceOnUse" x1="-6" x2="428.005" xlink:href="#lg3" y1="48.776" y2="48.776"/><linearGradient id="SVGID_14_" gradientUnits="userSpaceOnUse" x1="370.554" x2="510" xlink:href="#lg1" y1="440.277" y2="440.277"/><linearGradient id="SVGID_15_" gradientUnits="userSpaceOnUse" x1="322" x2="466.087" xlink:href="#lg1" y1="440.277" y2="440.277"/><linearGradient id="SVGID_16_" gradientUnits="userSpaceOnUse" x1="322" x2="466.087" xlink:href="#lg1" y1="438.75" y2="438.75"/><linearGradient id="SVGID_17_" gradientUnits="userSpaceOnUse" x1="322" x2="466.087" xlink:href="#lg1" y1="409.25" y2="409.25"/><g><g><circle cx="64.5" cy="68.882" fill="url(#SVGID_1_)" r="50.067"/><path d="m21.58 94.669c18.691-26.714 41.92-50.015 68.577-68.781 14.618 8.743 24.41 24.722 24.41 42.994 0 27.651-22.416 50.067-50.067 50.067-18.219 0-34.161-9.733-42.92-24.28z" fill="url(#SVGID_2_)"/></g><g><g><circle cx="255" cy="255" fill="url(#SVGID_3_)" r="255"/></g><g><path d="m48.066 404.014c46.307 64.193 121.735 105.986 206.934 105.986s160.627-41.793 206.934-105.986c-51.352 17.564-125.047 28.576-206.934 28.576s-155.582-11.012-206.934-28.576z" fill="url(#SVGID_4_)"/><path d="m442.572 82.273c-46.598-50.578-113.379-82.273-187.572-82.273s-140.974 31.695-187.572 82.273c49.739 14.027 115.48 22.563 187.572 22.563s137.833-8.537 187.572-22.563z" fill="url(#SVGID_5_)"/><path d="m255 185.742c0 12.665 10.451 22.81 23.112 22.495 68.617-1.708 132.645-11.004 182.296-26.606 11.306-3.553 23.161-7.868 34.565-13.04-5.12-14.217-11.458-27.851-18.905-40.768-8.011 3.588-17.627 7.256-29.15 10.877-45.798 14.391-105.511 22.97-170.016 24.555-12.188.301-21.902 10.295-21.902 22.487z" fill="url(#SVGID_6_)"/></g><path d="m255 0c-6.735 0-13.407.266-20.01.778 27.945 2.169 54.626 8.843 79.319 19.297 85.056 36.008 61.26 162.61-31.058 165.508-9.291.292-18.715.441-28.251.441-96.009 0-180.749-15.137-231.419-38.227-15.124 32.593-23.581 68.908-23.581 107.203 0 15.272 1.347 30.229 3.92 44.763 46.221 28.847 141.288 48.639 251.08 48.639 57.214 0 110.421-5.377 154.804-14.609 23.269-4.84 41.732 19.504 30.599 40.502-.143.27-.287.54-.431.809-3.759 7.029-10.271 12.195-18.012 14.094-47.287 11.6-105.457 17.892-166.96 17.892-72.819 0-140.978-8.816-191.919-24.823-15.484-4.866-27.534-9.818-36.857-14.544 11.564 23.425 26.607 44.823 44.475 63.504 52.061 13.512 116.516 20.863 184.301 20.863.471 0 .942 0 1.413-.001 32.883-.05 37.54 47.673 5.205 53.651-8.728 1.614-17.612 2.783-26.628 3.482 6.603.512 13.275.778 20.01.778 140.833 0 255-114.167 255-255s-114.167-255-255-255z" fill="url(#SVGID_7_)"/><path d="m183.333 404.313c0-11.464-8.629-21.081-20.023-22.35-37.376-4.162-71.535-10.894-100.229-19.911-22.689-7.13-38.007-14.445-48.167-20.962 8.204 22.876 19.585 44.235 33.611 63.554.001.001.003.002.004.003 31.544 10.011 68.97 18.457 109.733 23.009 13.361 1.492 25.071-9.899 25.071-23.343z" fill="url(#SVGID_8_)"/><path d="m162.204 391.902c-15.962-1.777-31.208-3.992-45.67-6.629-7.833-1.428-15.034 4.619-15.034 12.581 0 6.098 4.302 11.369 10.286 12.542 15.711 3.079 31.678 5.545 47.586 7.322.416.047.837.07 1.252.07h.001c3.219 0 6.339-1.398 8.786-3.936 2.493-2.586 3.923-6.063 3.923-9.54-.001-6.368-4.785-11.704-11.13-12.41z" fill="url(#SVGID_9_)"/><path d="m461.934 404.014c-51.352 17.564-125.047 28.576-206.934 28.576-81.883 0-155.574-11.01-206.926-28.573 6.915 9.59 14.472 18.686 22.625 27.21 52.061 13.512 116.516 20.863 184.301 20.863.471 0 .942 0 1.413-.001 32.883-.05 37.54 47.673 5.205 53.651-8.728 1.614-17.612 2.782-26.628 3.482 6.603.512 13.275.778 20.01.778 85.199 0 160.627-41.793 206.934-105.986z" fill="url(#SVGID_10_)"/><path d="m509.689 242.44c-.812-16.759-3.254-33.088-7.15-48.844-9.51 7.681-26.495 17.141-55.621 26.293-50.941 16.008-119.099 24.824-191.918 24.824s-140.977-8.816-191.918-24.823c-29.123-9.152-46.107-18.61-55.617-26.291-3.899 15.755-6.328 32.089-7.142 48.847 15.571 8.561 32.988 15.257 49.269 20.373 32.389 10.178 70.898 17.667 112.805 22.121 11.153 1.187 19.603 10.625 19.603 21.842 0 11.671 9.12 21.342 20.776 21.942 17.118.882 34.568 1.334 52.224 1.334 85.861 0 166.919-10.612 228.242-29.882 7.893-2.48 16.023-5.317 24.121-8.492 1.726-11.981 2.637-24.225 2.637-36.684 0-4.212-.106-8.399-.311-12.56z" fill="url(#SVGID_11_)"/><path d="m446.919 138.701c-29.48 9.264-64.732 16.114-103.31 20.246-14.212 15.397-34.618 25.828-60.358 26.637-9.288.292-18.71.441-28.243.441.154 12.533 10.539 22.526 23.105 22.213 68.617-1.708 132.645-11.004 182.296-26.606 11.306-3.553 23.161-7.868 34.565-13.04-5.12-14.217-11.458-27.851-18.905-40.768-8.012 3.587-17.628 7.256-29.15 10.877z" fill="url(#SVGID_12_)"/><path d="m235.012.78c27.937 2.171 54.611 8.844 79.296 19.295 35.74 15.13 52.254 46.256 52.548 77.478 27.874-3.807 53.408-8.989 75.716-15.28-46.598-50.578-113.379-82.273-187.572-82.273-6.727 0-13.392.269-19.988.78z" fill="url(#SVGID_13_)"/></g><g><circle cx="440.277" cy="440.277" fill="url(#SVGID_14_)" r="69.723"/><g><path d="m440.277 370.553c-4.271 0-8.446.405-12.506 1.14 32.536 5.896 57.218 34.347 57.218 68.583 0 11.15-2.632 21.678-7.286 31.021-2.359-10.621-12.135-18.449-23.616-17.755-11.157.674-20.339 9.637-21.257 20.777-.482 5.852 1.252 11.288 4.455 15.56 5.085 6.783 1.517 16.574-6.756 18.422-.912.204-1.832.39-2.757.558 4.059.736 8.234 1.14 12.506 1.14 38.506.001 69.722-31.215 69.722-69.722s-31.216-69.724-69.723-69.724z" fill="url(#SVGID_15_)"/><circle cx="405.021" cy="438.75" fill="url(#SVGID_16_)" r="14.75"/><circle cx="449.945" cy="409.25" fill="url(#SVGID_17_)" r="14.75"/></g></g></g></symbol></svg>