<svg xmlns="http://www.w3.org/2000/svg" xmlns:xlink="http://www.w3.org/1999/xlink" xmlns:fi="http://pattern.flaticon.com/" x="0" y="0" width="1920" height="1080" viewBox="0 0 2240 1260"><rect x="0px" y="0px" width="100%" height="100%" opacity="1" fill="#e7e7e7"/><defs><path d="M347.9,43.95l-40-40c-4.8-4.8-13.6-4.8-18.4,0l-89.6,89.2c-5.2,5.2-5.2,13.6,0,18.4l14.8,14.8l-8.8,8.8l-50.4-50    c-5.2-5.2-14.8-5.6-20-0.4c0-0.4,0-0.4,0-0.8c0-13.6-5.2-26.4-15.2-36.4c-2.8-2.8-7.6-2.8-10.4,0l-26,26l-0.8-0.8    c3.6-8,2.4-17.6-4-24c-8-8-22-8-30.4,0c-8.4,8.4-8.4,22,0,30.4c4,4,9.6,6.4,15.2,6.4c3.2,0,6.4-0.8,9.2-2l0.8,0.8l-26,25.6    c-1.2,1.2-2,3.2-2,5.2s0.8,3.6,2,5.2c9.6,9.6,22.4,15.2,36.4,15.2c0.4,0,0.4,0,0.8,0c-5.2,5.6-5.2,14.8,0.4,20l50.4,50.4l-8.8,8.8    l-15.2-14.8c-4.8-4.8-13.6-4.8-18.4,0l-26.8,26.8l-11.2,11.2l-51.6,51.2c-5.2,5.2-5.2,13.6,0,18.4l40,40c2.4,2.4,5.6,4,9.2,4    s6.8-1.2,9.2-4l23.6-23.6l20-20l46-45.6c2.4-2.4,4-5.6,4-9.2c0-3.6-1.2-6.8-4-9.2l-14.8-14.8l8.8-8.8l50.4,50.4    c2.8,2.8,6.4,4.4,10.4,4.4s7.6-1.6,10.4-4.4l49.6-49.6c5.6-5.6,5.6-14.8,0-20.4l-50.4-50.8l8.8-8.8l14.8,14.8c2.4,2.4,5.6,4,9.2,4    c3.6,0,6.8-1.2,9.2-4l47.6-47.6l18.4-18.4l23.6-23.6c2.4-2.4,4-5.6,4-9.2C351.9,49.55,350.7,46.35,347.9,43.95z M68.7,68.75    c-2.4,2.8-6.8,2.8-9.6,0s-2.8-6.8,0-9.6c1.2-1.2,3.2-2,4.8-2c1.6,0,3.6,0.8,4.8,2C71.5,61.95,71.5,65.95,68.7,68.75z M84.3,120.75    c-7.2,0-14.4-2-20.4-6l50.8-50.8c4,6,6,12.8,6,20.4c0,10-4,19.2-10.8,26C103.1,117.15,93.9,120.75,84.3,120.75z M95.5,145.55    l49.6-50l14,14l-49.6,50L95.5,145.55z M53.1,336.75l-38-38l13.2-13.2l38,38L53.1,336.75z M76.3,313.15l-38-38l37.6-37.6l38,38    L76.3,313.15z M140.7,249.15l-16.4,16.4l-38-38l16.4-16.4L140.7,249.15z M256.3,206.75l-49.6,49.6l-86.8-86.8l49.6-49.6    L256.3,206.75z M249.1,140.75l-38-38l16.4-16.4l38,38L249.1,140.75z M275.9,113.95l-38-38l26-26l11.2-11.6l38,38L275.9,113.95z     M323.5,66.35l-38-38l13.2-13.2l38,38L323.5,66.35z" transform="matrix(0.17050299048423767 0 0 0.17050299048423767 156 263)" id="L1_3"/><g transform="matrix(0.18472906947135925 0 0 0.18472906947135925 11 82)" id="L1_4"><path d="M273.449,69.6l-21.2-21.2c-2.8-2.8-7.6-2.8-10.4,0s-2.8,7.6,0,10.4l21.2,21.2c1.6,1.6,3.2,2,5.2,2s3.6-0.8,5.2-2    C276.249,77.2,276.249,72.4,273.449,69.6z"/><path d="M43.449,225.6c-2.8-2.8-7.6-2.8-10.4,0l-30.8,31.2c-2.8,2.8-2.8,7.6,0,10.4c1.6,1.6,3.2,2,5.2,2c1.6,0,3.6-0.4,4.8-2    l31.2-31.2C46.249,233.2,46.249,228.4,43.449,225.6z"/><path d="M99.049,281.2c-2.8-2.8-7.6-2.8-10.4,0l-31.2,31.2c-2.8,2.8-2.8,7.6,0,10.4c1.6,1.2,3.2,2,5.2,2s3.6-0.8,5.2-2l31.2-31.2    C101.849,288.8,101.849,284,99.049,281.2z"/><path d="M71.849,254c-2.8-2.8-7.6-2.8-10.4,0l-21.6,21.6c-2.8,2.8-2.8,7.6,0,10.4c1.6,1.6,3.2,2,5.2,2s3.6-0.8,5.2-2l21.6-21.6    C74.649,261.6,74.649,257.2,71.849,254z"/><path d="M312.649,12c-7.6-7.6-19.2-12-32.4-12c-20,0-42.4,9.2-55.6,22.4l-66.4,66.4l-113.2-2.4c-2,0-4,0.8-5.2,2l-34.4,34    c-2.8,2.8-2.8,7.6,0,10.4l54.4,54.4l-16.8,16.8c-1.2,1.2-2,3.2-2,5.2s0.8,3.6,2,5.2l67.6,67.6c1.6,1.6,3.2,2,5.2,2s3.6-0.8,5.2-2    l16.8-16.8l54.4,54.4c1.2,1.2,3.2,2,5.2,2s3.6-0.8,5.2-2l34-34c1.6-1.6,2-3.2,2-5.2l-2.8-113.2l66.4-66.8    C322.249,80.4,335.449,34.8,312.649,12z M53.049,159.6l-13.6-13.2l14.8-14.8c2.8-2.8,2.8-7.6,0-10.4s-7.6-2.8-10.4,0l-14.8,14.8    l-8.4-8.4l27.2-26.8l96,2.4l-73.6,73.6l-6.8-6.8l14.8-14.8c2.8-2.8,2.8-7.6,0-10.4c-2.8-2.8-7.6-2.8-10.4,0L53.049,159.6z     M115.849,266l-57.2-56.8l11.6-11.6l28.4,28.4l28.4,28.4L115.849,266z M197.049,303.6l-8.4-8.4l14.8-14.8c2.8-2.8,2.8-7.6,0-10.4    s-7.6-2.8-10.4,0l-14.8,15.2l-13.2-13.2l14.8-14.8c2.8-2.8,2.8-7.6,0-10.4s-7.6-2.8-10.4,0l-14.8,14.8l-6.8-6.8l73.6-73.6    l2.4,95.6L197.049,303.6z M137.849,244l-28.4-28.4l-28.4-28.4l84.8-85.6l18.8-18.8l57.2,57.2L137.849,244z M252.249,130    l-57.6-57.2l40-40c10.8-10.8,29.2-18,45.6-18c6.8,0,16,1.2,22.4,7.6c14.8,14.8,6.4,50.4-10.4,67.6L252.249,130z"/></g><path d="M317.6,121c-4.4,0-8.8,0.8-12.8,2.4l-15.6-41.6c1.2-3.6,2.4-8,2.4-12c0-20-16-36-36-36s-36,16-36,36    c0,5.2,1.2,10,3.2,14.4l-45.6,44.4c-6-4.8-13.6-7.6-21.6-7.6c-20,0-36,16-36,36c0,2,0.4,4.4,0.8,6.4l-54,23.6    C60,177,48.8,170.2,36,170.2c-20,0-36,16-36,36s16,36,36,36c19.2,0,35.6-16,35.6-36c0-2-0.4-3.6-0.4-5.6l54-23.6    c6.4,9.6,17.6,16,30,16c3.6,0,7.2-0.8,10.8-2l39.6,81.2c-1.2,3.6-2,7.6-2,11.6c0,20,16,36,36,36s36-16,36-36    c0-8.4-3.2-16.4-8-22.4l38.8-70.4c3.6,1.2,7.2,2,11.2,2c20,0,36-16,36-36S337.6,121,317.6,121z M35.6,227.8    c-12,0-21.6-9.6-21.6-21.6s9.6-21.6,21.6-21.6s21.6,9.6,21.6,21.6S47.6,227.8,35.6,227.8z M155.2,178.6c-12,0-21.6-9.6-21.6-21.6    c0.4-11.6,10-21.2,21.6-21.2c6.8,0,12.8,3.2,16.8,8c2.8,3.6,4.8,8.4,4.8,13.2C176.8,169,167.2,178.6,155.2,178.6z M255.2,48.2    c12,0,21.6,9.6,21.6,21.6s-9.6,21.6-21.6,21.6s-21.6-9.6-21.6-21.6C233.6,58.2,243.2,48.2,255.2,48.2z M239.6,305.8    c-12,0-21.6-9.6-21.6-21.6s9.6-21.6,21.6-21.6s21.6,9.6,21.6,21.6S251.6,305.8,239.6,305.8z M256,252.2c-4.8-2.4-10.4-4-16.4-4    c-9.6,0-18.4,4-24.8,10l-36-74c7.6-6.8,12.4-16.4,12.4-27.2c0-6.4-2-12.4-4.8-17.6l44.4-43.2c6.4,6,14.8,9.6,24.4,9.6    c9.2,0,17.2-3.6,23.6-9.2l12.8,34.8c-6.4,6.4-10.4,15.6-10.4,25.6c0,10.8,4.8,20.4,12.4,26.8L256,252.2z M317.2,178.6    c-12,0-21.2-9.6-21.2-21.6s9.6-21.6,21.6-21.6s21.2,10,21.2,21.6C338.8,169,329.2,178.6,317.2,178.6z" transform="matrix(0.16968326270580292 0 0 0.16968326270580292 2 193.99999896433553)" id="L1_5"/><g transform="matrix(0.15560166537761688 0 0 0.15560166537761688 172 130)" id="L1_6"><path d="M192.8,0C107.6,0,38.4,69.2,38.4,154.4c0,79.2,65.2,231.2,154.4,231.2s154.4-152,154.4-231.2C347.2,69.2,278,0,192.8,0z     M192.8,371.2c-74.4,0-140-135.2-140-216.8c0-77.2,62.8-140,140-140s140,62.8,140,140C332.8,236,267.2,371.2,192.8,371.2z"/><path d="M294.8,182.8c-7.6-7.6-18.4-12-29.6-12c-12.4,0-23.6,4.8-32.4,13.6c-8.4,8.4-16,22.4-20,36c-5.2,17.2-3.2,31.2,4.8,39.6    c5.2,5.2,12.4,7.6,21.6,7.6c19.6,0,42.8-11.6,54-22.8C310.8,227.2,311.2,199.6,294.8,182.8z M282.8,234.4    c-8.8,8.8-29.2,18.8-44,18.8c-3.6,0-8.4-0.4-11.2-3.6c-4-4-4.4-13.6-1.2-25.2c3.2-11.2,10-23.2,16.4-30c6-6,14-9.2,22-9.2    c7.2,0,14.4,2.8,19.2,8C295.2,204,294.4,222.8,282.8,234.4z"/><path d="M172.8,220.4c-3.6-13.6-11.6-27.6-20-36c-8.8-8.8-20.4-13.6-32.4-13.6c-11.2,0-21.6,4.4-29.6,12    c-16.8,16.8-16,44.4,1.6,62c11.2,11.2,34.8,22.8,54,22.8c9.2,0,16.4-2.4,21.6-7.6C176,252,178,237.6,172.8,220.4z M158,249.6    c-2.8,2.8-7.6,3.6-11.2,3.6c-14.8,0-34.8-10-44-18.8c-11.6-11.6-12.4-30.4-1.6-41.2c5.2-5.2,12-8,19.2-8c8,0,16,3.2,22,9.2    c6.4,6.4,13.2,18.4,16.4,30C162.4,236,162,245.6,158,249.6z"/></g><g transform="matrix(0.18248175084590912 0 0 0.18248175084590912 -20 317)" id="L1_7"><path d="M311.2,90.4c8.4-8.4,14-19.6,14-32.4c0-24.8-20.4-45.2-45.2-45.2c-11.6,0-22,4.4-30,11.2C224.4,8.4,194.8,0,164.4,0    C74,0,0,73.6,0,164.4s74,164.4,164.4,164.4s164.4-73.6,164.4-164.4C328.8,138.8,322.8,113.2,311.2,90.4z M279.6,27.6    c16.8,0,30.8,13.6,30.8,30.8s-13.6,30.8-30.8,30.8c-17.2,0-30.8-13.6-30.8-30.8S262.8,27.6,279.6,27.6z M164.8,314    c-82.4,0-150-67.2-150-149.6S82,14.8,164.4,14.8c27.2,0,53.2,7.2,76.4,20.8c-4,6.8-6,14.4-6,22.4c0,24.8,20.4,45.2,45.2,45.2    c6.8,0,13.2-1.6,19.2-4.4c10,20.4,15.2,42.8,15.2,65.6C314.4,246.8,247.2,314,164.8,314z"/><path d="M164.4,119.6c-24.8,0-44.8,20-44.8,44.8c0,24.8,20,44.8,44.8,44.8s44.8-20,44.8-44.8C209.2,139.6,189.2,119.6,164.4,119.6    z M164.4,194.8c-16.8,0-30.4-13.6-30.4-30.4s13.6-30.4,30.4-30.4s30.4,13.6,30.4,30.4S181.2,194.8,164.4,194.8z"/><path d="M164.4,61.2c-56.8,0-103.2,46.4-103.2,103.2c0,20,5.6,38.4,15.6,54c-4,5.6-6,12-6,19.2c0,18.4,14.8,33.2,33.2,33.2    c9.2,0,17.6-4,24-10c11.2,4.4,23.6,6.8,36.4,6.8c56.8,0,103.2-46.4,103.2-103.2C267.6,107.6,221.2,61.2,164.4,61.2z M164.4,253.2    c-10,0-19.6-1.6-28.8-4.8c1.2-3.2,2-6.8,2-10.8c0-18.4-14.8-33.2-33.2-33.2c-6,0-11.6,1.6-16.4,4.4c-7.6-13.2-12-28-12-44.4    c-0.4-48.8,39.6-88.8,88.4-88.8s88.8,39.6,88.8,88.8S213.2,253.2,164.4,253.2z"/></g><path d="M342.759,127.628l-33.2-115.6c-2.4-8.4-10.8-13.6-18.4-11.6l-61.2,17.6c-7.6,2.4-12,10.8-9.6,19.6l0.8,2    c-0.4,0-0.8,0-1.6,0.4l-88.8,25.2c-8.4,2.4-13.2,12-10.8,21.2l2,6.8c-0.4,0-0.8,0-1.6,0.4l-52.4,14.8c-0.4,0-0.8,0.4-1.2,0.4    l-0.4-0.8c-2.4-8.4-11.6-13.2-20-11.2l-26.4,7.6c-8.4,2.4-13.6,11.2-11.2,20l19.2,66c2,6.8,8.4,11.6,15.6,11.6    c1.6,0,2.8-0.4,4.4-0.8l26.4-7.6c4-1.2,7.6-4,9.6-7.6c2-3.6,2.4-8,1.6-12.4l-0.4-0.8c0.4,0,1.2,0,1.6-0.4l52.4-14.8    c0.4,0,0.8-0.4,1.6-0.4l2,6.8c1.6,5.2,4.8,9.2,9.2,11.2c-2.8,4.8-4.4,10-4.4,15.6c0,13.6,8.4,25.2,20,30l-83.6,118.4    c-2.4,3.2-1.6,8,1.6,10c1.2,0.8,2.8,1.2,4,1.2c2.4,0,4.4-1.2,6-3.2l76.8-107.6v104.4c0,4,3.2,7.2,7.2,7.2c4,0,7.2-3.2,7.2-7.2    v-101.2l74.8,105.6c1.6,2,3.6,3.2,6,3.2c1.6,0,2.8-0.4,4-1.2c3.2-2.4,4-6.8,1.6-10l-82.8-118.4c12.8-4.4,22-16.4,22-30.8    c0-10-4.8-19.2-12-25.2l50.8-14.4c0.4,0,0.8-0.4,1.6-0.4l0.8,2c2,7.2,8,12,14.8,12c1.2,0,2.4,0,3.6-0.4l61.2-17.6    c4-1.2,7.2-4,8.8-8C343.559,135.628,343.959,131.628,342.759,127.628z M71.159,179.228c0,0.4-0.4,0.4-0.8,0.8l-26.4,7.6    c-0.8,0-1.6,0-2-1.2l-18.8-66c-0.4-0.8,0.4-1.6,1.2-2l26.8-7.6c0.4,0,1.2,0.4,1.6,1.2l5.6,18.8l2,7.2l11.6,40    C71.559,178.828,71.559,179.228,71.159,179.228z M134.759,144.428l-52.4,14.8c-0.4,0-2-1.2-2.8-4l-8-28c-0.8-2.4,0-4.4,0.4-4.8    l52.4-14.8c0.4,0,2,1.2,2.8,4l8,27.6v0.4C135.959,142.028,135.159,144.028,134.759,144.428z M179.559,209.628c-10,0-18-8-18-18    s8-18,18-18s18,8,18,18S189.559,209.628,179.559,209.628z M247.959,137.228c0,0.4-0.4,0.4-0.4,0.8l-88.8,25.2    c-0.8,0-1.6-0.8-2.4-2.4l-7.2-25.2l-8-28l-7.2-24.8c-0.4-2,0.4-3.2,0.4-3.2l88.8-25.2c0.4,0,1.6,0.8,2.4,2.4l22.4,77.6    C248.359,135.628,247.959,136.828,247.959,137.228z M267.959,150.828c-0.4,0-0.4-0.4-0.8-1.2l-5.2-18.8l-22.4-78l-5.2-18.8    c-0.4-0.8,0-1.6-0.4-1.6l60.8-17.6c0,0,0.8,0.4,0.8,1.6l33.2,116c0.4,0.8,0,1.2,0.4,1.6L267.959,150.828z" transform="matrix(0.17063488066196442 0 0 0.17063488066196442 216.00000058322473 23)" id="L1_8"/></defs><g fi:class="KUsePattern"><pattern id="pattern_L1_3" width="350" height="350" patternUnits="userSpaceOnUse"><use xlink:href="#L1_3" x="-350" y="-350"/><use xlink:href="#L1_3" x="0" y="-350"/><use xlink:href="#L1_3" x="350" y="-350"/><use xlink:href="#L1_3" x="-350" y="0"/><use xlink:href="#L1_3" x="0" y="0"/><use xlink:href="#L1_3" x="350" y="0"/><use xlink:href="#L1_3" x="-350" y="350"/><use xlink:href="#L1_3" x="0" y="350"/><use xlink:href="#L1_3" x="350" y="350"/></pattern><rect x="0" y="0" width="100%" height="100%" fill="url(#pattern_L1_3)"/></g><g fi:class="KUsePattern"><pattern id="pattern_L1_4" width="350" height="350" patternUnits="userSpaceOnUse"><use xlink:href="#L1_4" x="-350" y="-350"/><use xlink:href="#L1_4" x="0" y="-350"/><use xlink:href="#L1_4" x="350" y="-350"/><use xlink:href="#L1_4" x="-350" y="0"/><use xlink:href="#L1_4" x="0" y="0"/><use xlink:href="#L1_4" x="350" y="0"/><use xlink:href="#L1_4" x="-350" y="350"/><use xlink:href="#L1_4" x="0" y="350"/><use xlink:href="#L1_4" x="350" y="350"/></pattern><rect x="0" y="0" width="100%" height="100%" fill="url(#pattern_L1_4)"/></g><g fi:class="KUsePattern"><pattern id="pattern_L1_5" width="350" height="350" patternUnits="userSpaceOnUse"><use xlink:href="#L1_5" x="-350" y="-350"/><use xlink:href="#L1_5" x="0" y="-350"/><use xlink:href="#L1_5" x="350" y="-350"/><use xlink:href="#L1_5" x="-350" y="0"/><use xlink:href="#L1_5" x="0" y="0"/><use xlink:href="#L1_5" x="350" y="0"/><use xlink:href="#L1_5" x="-350" y="350"/><use xlink:href="#L1_5" x="0" y="350"/><use xlink:href="#L1_5" x="350" y="350"/></pattern><rect x="0" y="0" width="100%" height="100%" fill="url(#pattern_L1_5)"/></g><g fi:class="KUsePattern"><pattern id="pattern_L1_6" width="350" height="350" patternUnits="userSpaceOnUse"><use xlink:href="#L1_6" x="-350" y="-350"/><use xlink:href="#L1_6" x="0" y="-350"/><use xlink:href="#L1_6" x="350" y="-350"/><use xlink:href="#L1_6" x="-350" y="0"/><use xlink:href="#L1_6" x="0" y="0"/><use xlink:href="#L1_6" x="350" y="0"/><use xlink:href="#L1_6" x="-350" y="350"/><use xlink:href="#L1_6" x="0" y="350"/><use xlink:href="#L1_6" x="350" y="350"/></pattern><rect x="0" y="0" width="100%" height="100%" fill="url(#pattern_L1_6)"/></g><g fi:class="KUsePattern"><pattern id="pattern_L1_7" width="350" height="350" patternUnits="userSpaceOnUse"><use xlink:href="#L1_7" x="-350" y="-350"/><use xlink:href="#L1_7" x="0" y="-350"/><use xlink:href="#L1_7" x="350" y="-350"/><use xlink:href="#L1_7" x="-350" y="0"/><use xlink:href="#L1_7" x="0" y="0"/><use xlink:href="#L1_7" x="350" y="0"/><use xlink:href="#L1_7" x="-350" y="350"/><use xlink:href="#L1_7" x="0" y="350"/><use xlink:href="#L1_7" x="350" y="350"/></pattern><rect x="0" y="0" width="100%" height="100%" fill="url(#pattern_L1_7)"/></g><g fi:class="KUsePattern"><pattern id="pattern_L1_8" width="350" height="350" patternUnits="userSpaceOnUse"><use xlink:href="#L1_8" x="-350" y="-350"/><use xlink:href="#L1_8" x="0" y="-350"/><use xlink:href="#L1_8" x="350" y="-350"/><use xlink:href="#L1_8" x="-350" y="0"/><use xlink:href="#L1_8" x="0" y="0"/><use xlink:href="#L1_8" x="350" y="0"/><use xlink:href="#L1_8" x="-350" y="350"/><use xlink:href="#L1_8" x="0" y="350"/><use xlink:href="#L1_8" x="350" y="350"/></pattern><rect x="0" y="0" width="100%" height="100%" fill="url(#pattern_L1_8)"/></g></svg>